PathFileType	4	(X/Y/Z)	Patient4_TMGait_0pt4_01_right_26.trc.trc
DataRate	CameraRate	NumFrames	NumMarkers	Units	OrigDataRate	OrigDataStartFrame	OrigNumFrames
74.074074074074	74.074074074074	6	33	mm	74.074074074074	36	       141
Frame#	Time	Sacral			L.Shoulder			Chest			R.Shoulder			Neck			R.ASIS			L.ASIS			R.Thigh.Superior			R.Thigh.Lateral			R.Thigh.Inferior			R.Patella			L.Thigh.Superior			L.Thigh.Lateral			L.Thigh.Inferior			L.Patella			L.Shank.Superior			L.Shank.Lateral			L.Shank.Inferior			R.Shank.Superior			R.Shank.Lateral			R.Shank.Inferior			R.Heel			R.Midfoot.Superior			R.Midfoot.Lateral			R.Toe			L.Heel			L.Midfoot.Lateral			L.Midfoot.Superior			L.Toe			L.Elbow			L.Wrist			R.Elbow			R.Wrist			
		X1	Y1	Z1	X2	Y2	Z2	X3	Y3	Z3	X4	Y4	Z4	X5	Y5	Z5	X6	Y6	Z6	X7	Y7	Z7	X8	Y8	Z8	X9	Y9	Z9	X10	Y10	Z10	X11	Y11	Z11	X12	Y12	Z12	X13	Y13	Z13	X14	Y14	Z14	X15	Y15	Z15	X16	Y16	Z16	X17	Y17	Z17	X18	Y18	Z18	X19	Y19	Z19	X20	Y20	Z20	X21	Y21	Z21	X22	Y22	Z22	X23	Y23	Z23	X24	Y24	Z24	X25	Y25	Z25	X26	Y26	Z26	X27	Y27	Z27	X28	Y28	Z28	X29	Y29	Z29	X30	Y30	Z30	X31	Y31	Z31	X32	Y32	Z32	X33	Y33	Z33	

36	33.932500000000	897.735463634655	1000.325857414013	485.349202381662	1089.123459702026	1427.532199484356	302.912518913005	1176.001684269045	1366.425744665500	474.673867067970	1074.455280658182	1443.865317481601	636.665862629907	1062.229316718634	1493.736217013730	456.220076299986	1122.697146642648	942.188911650835	615.767338965929	1122.183453382657	964.113670819173	340.616463813412	1183.056205825724	748.634822485888	586.018520851937	1110.238047281744	633.783425802791	646.352269471894	1194.844528459923	587.920601492045	568.261987326158	1203.683104116735	499.843778254451	575.785824686881	1147.870093864518	739.905911037263	358.676048862061	1050.502111372269	632.971918668513	288.077394012132	1129.414973220283	543.481951406958	343.993892555245	1120.244310174647	463.491674598553	340.598622939882	1062.999019239587	403.752756144484	332.688159266374	932.955782923938	335.539438747018	283.745148600889	945.782566170811	205.910802777704	339.286438690745	1178.823275333284	409.194761745665	584.417242346571	1112.046576494437	304.086426116963	649.706906671902	1157.280385062815	209.354270620765	587.863950718780	1030.008158115858	42.832874585019	563.043331536318	1201.165792214853	98.246359994320	595.718017141515	1114.659045861951	37.482037248049	636.448632928756	1322.347123391543	46.932138933543	620.839666310072	776.826408193602	93.796054544554	380.426786757302	842.144658275370	67.356296230780	298.416715559357	939.151734004319	107.465134819621	317.969601196731	1046.186349686454	35.421826788855	286.533349253380	1121.327554963207	1082.309065626143	176.624783019775	1313.851801611388	903.154133965751	181.861175892630	985.129297076406	1115.186033368882	768.289769225913	1078.790755308678	871.290529419914	783.133023281172	
37	33.946000000000	898.262120195202	1001.032933974199	489.580307822439	1089.001265386145	1428.305360480241	306.713877047915	1177.349552017298	1366.662775893384	477.576005089833	1077.447824668974	1443.941549523406	640.596003523037	1063.590818087369	1494.188128642794	460.394201821620	1124.049876634177	942.427555077629	618.271438896210	1122.118115365223	964.871929440392	343.065176080919	1182.441713830938	747.873534692637	588.714460536063	1108.376805527510	633.733788333859	648.648198122331	1192.352347601354	587.318321628814	570.293105670183	1200.265902546806	499.288832759892	577.314754025982	1152.921731638230	742.268296599461	361.591672033750	1060.434813766679	632.860845110590	289.899155350404	1142.239930924949	545.139685563076	345.999405075138	1134.124177031501	463.675277177979	341.705211832062	1074.354856718217	404.169188604910	333.879399869316	941.896496894958	341.117878127132	284.679641499663	949.889489478832	211.080578612960	339.575330740835	1175.131501557072	408.781430289084	585.784557802551	1108.102519197704	303.765179411466	650.849090427626	1152.671372936850	209.059294159573	588.456583205836	1024.641597885967	42.795319815209	563.195583129891	1195.861142539955	98.183474166595	596.062509717226	1109.295868324431	37.419797288282	636.642696117884	1317.044052758090	46.699321593864	621.041805297572	776.300484531135	107.307939793597	379.968230793650	840.315577552887	77.112724752033	298.202848631667	939.258321036079	111.930016312426	317.743552320453	1041.459333086651	34.699361732329	286.847520574415	1117.362523112385	1082.197798953755	181.455230174424	1302.682133640678	895.346395237621	184.852349422371	994.397279878002	1114.101142794254	774.287970225257	1098.568986272161	874.535109456257	785.963528579159	
38	33.959500000000	898.597863640803	1001.669139927484	493.690578785377	1088.622019390615	1428.996888215627	310.381444920434	1178.605893179429	1366.743491181254	480.225336093604	1080.562656134505	1443.862665849092	644.396137948195	1064.910081471600	1494.542520030845	464.472699137594	1125.208668504895	942.577240785671	620.525613173672	1121.681954434907	965.417960023499	345.314168679859	1181.534566772062	747.042071236554	591.233516976600	1106.335140054224	633.660615395937	650.866644919309	1189.615293445715	586.700567200927	572.214147974093	1196.626268642746	498.746313766735	578.825501042895	1157.985199339469	744.948586499386	364.354520611337	1070.641522406398	633.101366344313	291.576444933096	1155.271816082237	547.363759295417	347.961623437835	1148.394363989011	464.527251764135	342.968481413345	1086.347715268519	405.061940827679	335.152168428578	951.723812935968	347.083375227476	285.587981009288	954.860747625247	216.839915587757	340.035819094031	1171.270369094445	408.369263215960	587.131081548120	1104.013326296332	303.424954660144	651.968552868196	1147.964246153697	208.765615525110	589.037846503836	1019.207554330573	42.774112503237	563.330247687360	1190.499129168737	98.072216253103	596.353674538035	1103.868295480953	37.349118975507	636.817955994408	1311.690487358822	46.374008085060	621.209245073198	776.865872609425	121.583025731772	379.617988478156	839.542988320824	87.813190075202	298.084581193322	940.278906841434	117.152617566949	317.805664334980	1037.506048907981	34.189540739898	287.367117037552	1112.899379070138	1081.992567851160	186.187358646551	1290.560249532831	887.641144134093	187.661567987127	1004.065298029109	1113.067843621544	780.355305576008	1118.525740200425	878.329816029380	788.693213206832	
39	33.973000000000	898.764200364414	1002.237757657951	497.631605617011	1088.031997750772	1429.619060590148	313.885535557435	1179.771086547239	1366.677275789896	482.608032155325	1083.760631023106	1443.636777346276	648.027863960389	1066.196851935546	1494.814687320467	468.415376212411	1126.165110265510	942.654998390516	622.536834554824	1120.853837978126	965.714205550091	347.393657713986	1180.392958201273	746.199456055286	593.533182972348	1104.213205804834	633.585862145545	652.993157699127	1186.733211631185	586.088617587201	574.008576334276	1192.861807361303	498.226589655813	580.314324157997	1162.919114083191	747.944676188168	366.954031631721	1080.829502723380	633.770321411413	293.116950063525	1168.177004733474	550.197543304388	349.829439161369	1162.741935710512	466.111250285985	344.315955103054	1098.722108035922	406.476960205511	336.457836094046	962.203182562892	353.284968891364	286.481829830774	960.675365172371	222.998387310747	340.665763939412	1167.324763875944	407.967796743476	588.447106981363	1099.849234472118	303.088321877354	653.071256468094	1143.207750522160	208.482910647789	589.608387931580	1013.734927077185	42.776663110604	563.459503303866	1185.109539482010	97.929740182150	596.605274445147	1098.404342923239	37.280109526347	636.984430410363	1306.309611771631	45.981395941126	621.352849283274	778.658107699889	135.996568899068	379.407434484374	840.052680808832	98.979592438881	298.094167708927	942.362878751855	122.951627123078	318.166754387589	1034.740508375533	33.983203442342	288.097099328751	1107.907703893824	1081.709449946982	190.801360377776	1277.512828124956	880.148041957444	190.302244340970	1014.154109007832	1112.082645782293	786.413280516010	1138.575104372012	882.622866764911	791.278789006906	
40	33.986500000000	898.787127553922	1002.757282480594	501.368948825862	1087.286218364395	1430.195228470795	317.201908433598	1180.847351590453	1366.493758282039	484.722760805646	1086.996208391637	1443.293255987216	651.458697859547	1067.459866429688	1495.032115856021	472.183342067999	1126.920606492507	942.684822598451	624.325513669023	1119.654941562920	965.770341640639	349.335534257292	1179.075041314526	745.394730873551	595.601804907552	1102.069792879516	633.524590049867	655.010274263086	1183.785072855351	585.496684832673	575.672731079298	1189.050631356483	497.737499342245	581.770004693361	1167.590031703647	751.244344531566	369.392197796363	1090.712843815041	634.920185141667	294.526931561516	1180.646076560238	553.652855379947	351.543466169899	1176.860711967429	468.455257699400	345.645005679124	1111.223436324688	408.434434102742	337.725366762237	973.093590806863	359.524628718734	287.358858226568	967.336564620686	229.300268206545	341.431657130680	1163.357596644556	407.587266933439	589.718971387772	1095.656616872431	302.777496918924	654.152758241239	1138.437455920682	208.221808331790	590.166768724632	1008.249012994740	42.807214095842	563.592163693716	1179.715545983351	97.772976922883	596.830199548115	1092.928222343397	37.220470435957	637.148483043297	1300.919848389564	45.549300472427	621.483097929776	781.823188997076	149.817860841527	379.353242963251	842.083573849377	110.008907426888	298.247633170569	945.696071015783	129.047875474135	318.794294414527	1033.636866295565	34.163442244472	289.011895445743	1102.367203084861	1081.383934350136	195.280926276666	1263.575530613348	872.975448957317	192.792581443978	1024.674958450626	1111.160701505267	792.372353841396	1158.640139178430	887.371054997920	793.673186431098	
41	34.000000000000	898.694568375283	1003.258432631577	504.882682829469	1086.442607492188	1430.755788540932	320.314719067310	1181.839199415858	1366.237471086003	486.580492823950	1090.223921750029	1442.878047869208	654.665288973485	1068.705394546468	1495.229513290644	475.743769709930	1127.486315634113	942.693467505585	625.920961350094	1118.149891576120	965.643536601740	351.165552749322	1177.632003932059	744.661782912327	597.454017625939	1099.922412695190	633.486257047826	656.899280671202	1180.823478044307	584.932477067120	577.213564062821	1185.244238915103	497.284319928128	583.175810210186	1171.884568761408	754.821798063664	371.677223965489	1100.036926997207	636.570333738602	295.811225385733	1192.414447882667	557.703132033690	353.044424156464	1190.469142988955	471.547288862919	346.845081625507	1123.617861499876	410.921967378531	338.875739803677	984.173509313744	365.563223593810	288.203668517510	974.878075881372	235.439174859194	342.273067993344	1159.405226566025	407.237712003749	590.930180032886	1091.457401419717	302.512199111900	655.200535669780	1133.673528069184	207.992428169205	590.709652943238	1002.769033389075	42.867116612966	563.733480590113	1174.331899607476	97.615905852692	597.037930397029	1087.457689703163	37.175083861125	637.312678120991	1295.533431310094	45.103767456437	621.608531399906	786.516865092313	162.269858891305	379.453422315362	845.876050386404	120.230161068314	298.537654199895	950.492388912940	135.086677090728	319.614290490766	1034.694535453484	34.782481268829	290.046603866517	1096.273234971754	1081.068134854066	199.612654077417	1248.794904134119	866.226729817210	195.154458115715	1035.622963295162	1110.334301795188	798.136687525461	1178.650246554555	892.542962809150	795.824659214785	
